<svg width="277" height="247" viewBox="0 0 277 247" fill="none" xmlns="http://www.w3.org/2000/svg">
<g clip-path="url(#clip0_37_1901)">
<path d="M172.763 247H91.3063C80.6926 247 72.0576 238.422 72.0576 227.879V19.1214C72.0576 8.57776 80.6926 0 91.3063 0H172.763C183.377 0 192.011 8.57776 192.011 19.1214V227.879C192.011 238.422 183.377 247 172.763 247Z" fill="#2F2E41"/>
<path d="M172.846 241.84H91.2233C83.2593 241.84 76.7802 235.403 76.7802 227.492V18.3353C76.7802 10.4241 83.2593 3.98767 91.2233 3.98767H172.846C180.81 3.98767 187.289 10.4241 187.289 18.3353V227.492C187.289 235.403 180.81 241.84 172.846 241.84Z" fill="white"/>
<path d="M144.786 17.5926H118.811C115.817 17.5926 113.38 15.1725 113.38 12.1976C113.38 9.22262 115.817 6.80249 118.811 6.80249H144.786C147.78 6.80249 150.216 9.22262 150.216 12.1976C150.216 15.1725 147.78 17.5926 144.786 17.5926Z" fill="#2F2E41"/>
<path d="M164.673 76.1308H96.5935C93.9813 76.1308 91.8562 74.0195 91.8562 71.4246V44.546C91.8562 41.9512 93.9813 39.8402 96.5935 39.8402H164.673C167.286 39.8402 169.411 41.9512 169.411 44.546V71.4246C169.411 74.0195 167.286 76.1308 164.673 76.1308Z" fill="#6C63FF"/>
<path d="M164.673 158.444H96.5935C93.9813 158.444 91.8562 156.332 91.8562 153.737V126.859C91.8562 124.264 93.9813 122.153 96.5935 122.153H164.673C167.286 122.153 169.411 124.264 169.411 126.859V153.737C169.411 156.332 167.286 158.444 164.673 158.444Z" fill="#D8D8D8"/>
<path d="M164.269 116.807H137.505C134.755 116.807 132.519 114.585 132.519 111.854V86.0778C132.519 83.3467 134.755 81.1249 137.505 81.1249H164.269C167.018 81.1249 169.255 83.3467 169.255 86.0778V111.854C169.255 114.585 167.018 116.807 164.269 116.807Z" fill="#D8D8D8"/>
<path d="M123.451 116.807H96.6864C93.9372 116.807 91.7005 114.585 91.7005 111.854V86.0778C91.7005 83.3467 93.9372 81.1249 96.6864 81.1249H123.451C126.2 81.1249 128.437 83.3467 128.437 86.0778V111.854C128.437 114.585 126.2 116.807 123.451 116.807Z" fill="#D8D8D8"/>
<path d="M203.744 60.3988L202.026 64.6685C202.026 64.6685 200.442 70.6453 202.299 73.0295C204.152 75.4097 204.565 93.6604 202.573 95.0066C200.581 96.3569 227.819 82.5097 227.819 82.5097C227.819 82.5097 217.186 58.0145 217.006 57.9253C216.827 57.8361 209.859 55.679 209.859 55.679L203.752 60.3988H203.744Z" fill="#2F2E43"/>
<path d="M221.48 81.504L212.353 84.4843V71.4359H220.635L221.48 81.504Z" fill="#F2A2A5"/>
<path d="M192.36 155.59C191.866 158.578 189.858 160.723 187.878 160.378C185.899 160.034 184.69 157.329 185.188 154.337C185.368 153.141 185.846 152.005 186.58 151.036L188.842 138.397L194.997 139.679L192.111 152.001C192.491 153.169 192.576 154.398 192.36 155.59Z" fill="#F2A2A5"/>
<path d="M218.051 227.595H209.504V239.642H218.051V227.595Z" fill="#F2A2A5"/>
<path d="M201.177 246.937C200.279 246.937 199.479 246.916 198.875 246.86C196.605 246.653 194.438 244.986 193.348 244.013C192.858 243.575 192.703 242.878 192.956 242.278C193.14 241.848 193.503 241.523 193.956 241.398L199.956 239.695L209.671 233.183L209.781 233.377C209.822 233.45 210.777 235.157 211.096 236.309C211.218 236.747 211.185 237.112 211.002 237.396C210.875 237.59 210.696 237.704 210.553 237.769C210.728 237.951 211.279 238.324 212.977 238.592C215.455 238.981 215.977 236.431 215.998 236.325L216.014 236.24L216.088 236.191C217.267 235.437 217.994 235.092 218.243 235.165C218.398 235.21 218.659 235.291 219.365 242.237C219.435 242.456 219.929 244.054 219.594 245.582C219.231 247.245 211.916 246.673 210.451 246.543C210.41 246.547 204.932 246.937 201.181 246.937L201.177 246.937Z" fill="#2F2E43"/>
<path d="M242.39 218.131L235.137 222.625L241.555 232.847L248.807 228.353L242.39 218.131Z" fill="#F2A2A5"/>
<path d="M232.758 245.282C231.754 245.282 230.831 245.161 230.174 245.047C229.529 244.933 229.023 244.423 228.917 243.782C228.843 243.32 228.978 242.853 229.296 242.509L233.48 237.911L238.256 227.279L238.452 227.384C238.525 227.425 240.244 228.37 241.13 229.181C241.468 229.489 241.636 229.817 241.628 230.154C241.624 230.389 241.534 230.575 241.444 230.709C241.689 230.774 242.354 230.798 243.938 230.133C246.248 229.164 245.334 226.723 245.293 226.622L245.26 226.541L245.297 226.464C245.897 225.203 246.326 224.53 246.579 224.461C246.738 224.416 246.999 224.347 251.297 229.874C251.473 230.02 252.742 231.119 253.273 232.591C253.849 234.192 247.338 237.554 246.028 238.211C245.987 238.243 239.174 243.162 236.374 244.56C235.264 245.116 233.95 245.286 232.754 245.286L232.758 245.282Z" fill="#2F2E43"/>
<path d="M224.345 126.853H200.413L198.242 148.968L207.744 230.681H219.961L215.075 183.487L234.893 226.095L245.75 218.545L230.276 178.767C230.276 178.767 235.803 144.115 231.46 135.482C227.117 126.853 224.345 126.853 224.345 126.853Z" fill="#2F2E43"/>
<path d="M236.248 128.203H194.711L209.642 79.3915H226.202L236.248 128.203Z" fill="#D6D6D7"/>
<path d="M212.255 79.3996C212.255 79.3996 201.94 79.1279 200.854 81.8284C199.769 84.5249 187.009 148.709 187.009 148.709H195.426L212.259 79.3996L212.255 79.3996Z" fill="#D6D6D7"/>
<path d="M213.483 75.0487C218.506 75.0487 222.578 71.004 222.578 66.0146C222.578 61.0252 218.506 56.9805 213.483 56.9805C208.461 56.9805 204.389 61.0252 204.389 66.0146C204.389 71.004 208.461 75.0487 213.483 75.0487Z" fill="#F2A2A5"/>
<path d="M215.247 51.9768C215.247 51.9768 226.194 49.1912 229.545 63.6628C229.545 63.6628 229.635 67.4379 231.537 68.9665C233.439 70.4952 232.803 78.4061 232.803 78.4061C232.803 78.4061 236.423 84.3383 233.346 87.0348C233.346 87.0348 231.986 92.5169 233.978 95.6634C235.97 98.81 243.481 116.116 230.99 117.17C230.99 117.17 224.655 113.371 227.643 102.046C230.631 90.7206 227.28 84.464 227.28 84.464C227.28 84.464 217.688 81.0093 218.231 73.6377C218.773 66.266 212.075 58.9836 211.626 59.0768C211.177 59.1701 206.467 56.4696 204.385 64.7414L202.156 64.3643C202.156 64.3643 201.218 50.4482 215.247 51.9768Z" fill="#2F2E43"/>
<path d="M243.338 154.138C243.946 157.106 242.832 159.819 240.856 160.196C238.881 160.573 236.787 158.468 236.182 155.5C235.925 154.316 235.966 153.092 236.301 151.924L233.897 139.309L240.109 138.332L241.819 150.87C242.591 151.827 243.109 152.946 243.338 154.138Z" fill="#F2A2A5"/>
<path d="M218.969 79.4564C218.969 79.4564 228.056 78.3129 229.141 81.0094C230.227 83.7058 242.987 147.89 242.987 147.89H234.57L218.969 79.4564Z" fill="#D6D6D7"/>
<path d="M277 246.359C277 246.695 276.727 246.967 276.388 246.967H0.612272C0.273481 246.967 0 246.695 0 246.359C0 246.022 0.273481 245.75 0.612272 245.75H276.388C276.727 245.75 277 246.022 277 246.359Z" fill="#2F2E43"/>
</g>
<defs>
<clipPath id="clip0_37_1901">
<rect width="277" height="247" fill="white"/>
</clipPath>
</defs>
</svg>
