<svg width="277" height="247" viewBox="0 0 277 247" fill="none" xmlns="http://www.w3.org/2000/svg">
<g clip-path="url(#clip0_37_1811)">
<path d="M74.8564 22.7731C75.9789 19.9412 78.3994 18.2624 80.2607 19.0203C82.122 19.7782 82.722 22.6916 81.5995 25.5234C81.1669 26.6603 80.4607 27.6708 79.5341 28.4694L74.6196 40.3999L68.8765 37.837L74.3298 26.3465C74.2074 25.12 74.387 23.8936 74.8523 22.769L74.8564 22.7731Z" fill="#A0616A"/>
<path d="M54.2636 98.9401C54.2636 98.9401 46.0224 94.9552 46.5939 92.0948C47.1653 89.2303 71.7175 28.229 71.7175 28.229L83.0853 35.6856L54.2636 98.9442V98.9401Z" fill="#E6E6E6"/>
<path d="M177.869 247H99.0411C87.5753 247 78.2484 237.689 78.2484 226.244V20.7562C78.2484 9.31053 87.5753 0 99.0411 0H177.869C189.335 0 198.662 9.31053 198.662 20.7562V226.244C198.662 237.689 189.335 247 177.869 247Z" fill="#D7D7D8"/>
<path d="M177.926 241.381H98.984C90.4979 241.381 83.5914 234.487 83.5914 226.016V20.581C83.5914 12.1098 90.4979 5.21558 98.984 5.21558H177.926C186.412 5.21558 193.319 12.1098 193.319 20.581V226.016C193.319 234.487 186.412 241.381 177.926 241.381Z" fill="white"/>
<path d="M149.619 18.89H127.295C124.348 18.89 121.952 16.4982 121.952 13.5563C121.952 10.6145 124.348 8.22266 127.295 8.22266H149.619C152.566 8.22266 154.962 10.6145 154.962 13.5563C154.962 16.4982 152.566 18.89 149.619 18.89Z" fill="#D7D7D8"/>
<path d="M175.767 82.2219H101.147C97.7704 82.2219 95.0328 84.9538 95.0328 88.3237C95.0328 91.6936 97.7704 94.4254 101.147 94.4254H175.767C179.144 94.4254 181.882 91.6936 181.882 88.3237C181.882 84.9538 179.144 82.2219 175.767 82.2219Z" fill="#5B84FF"/>
<path d="M122.593 72.0802H97.9023C97.3139 72.0802 96.8369 72.5563 96.8369 73.1437C96.8369 73.731 97.3139 74.2072 97.9023 74.2072H122.593C123.182 74.2072 123.659 73.731 123.659 73.1437C123.659 72.5563 123.182 72.0802 122.593 72.0802Z" fill="#5B84FF"/>
<path d="M175.767 123.535H101.147C97.7704 123.535 95.0328 126.267 95.0328 129.636C95.0328 133.006 97.7704 135.738 101.147 135.738H175.767C179.144 135.738 181.882 133.006 181.882 129.636C181.882 126.267 179.144 123.535 175.767 123.535Z" fill="#D7D7D8"/>
<path d="M122.593 113.389H97.9023C97.3139 113.389 96.8369 113.865 96.8369 114.452C96.8369 115.04 97.3139 115.516 97.9023 115.516H122.593C123.182 115.516 123.659 115.04 123.659 114.452C123.659 113.865 123.182 113.389 122.593 113.389Z" fill="#D7D7D8"/>
<path d="M175.767 164.843H101.147C97.7704 164.843 95.0328 167.575 95.0328 170.945C95.0328 174.315 97.7704 177.047 101.147 177.047H175.767C179.144 177.047 181.882 174.315 181.882 170.945C181.882 167.575 179.144 164.843 175.767 164.843Z" fill="#D7D7D8"/>
<path d="M122.593 154.701H97.9023C97.3139 154.701 96.8369 155.178 96.8369 155.765C96.8369 156.352 97.3139 156.828 97.9023 156.828H122.593C123.182 156.828 123.659 156.352 123.659 155.765C123.659 155.178 123.182 154.701 122.593 154.701Z" fill="#D7D7D8"/>
<path d="M219.581 50.2809C219.581 50.2809 211.164 51.2303 210.622 64.2365C210.168 75.075 209.246 81.1177 213.662 83.3791C215.242 84.1859 217.099 84.2592 218.785 83.7051L236.819 77.7846C236.819 77.7846 237.092 58.2712 230.847 53.5324C224.602 48.7896 219.581 50.2809 219.581 50.2809Z" fill="#2F2E41"/>
<path d="M229.524 80.1805L220.397 83.1754V70.0632H228.675L229.524 80.1805Z" fill="#FFB6B6"/>
<path d="M201.625 154.628C201.131 157.631 199.123 159.787 197.143 159.44C195.164 159.094 193.956 156.376 194.454 153.369C194.633 152.167 195.111 151.026 195.845 150.052L198.107 137.352L204.262 138.639L201.376 151.022C201.756 152.196 201.842 153.43 201.625 154.628Z" fill="#FFB6B6"/>
<path d="M251.378 153.169C251.987 156.152 250.872 158.878 248.897 159.257C246.921 159.636 244.827 157.521 244.223 154.538C243.966 153.349 244.007 152.118 244.341 150.945L241.937 138.268L248.15 137.286L249.86 149.885C250.631 150.847 251.15 151.971 251.378 153.169Z" fill="#FFB6B6"/>
<path d="M226.092 226.985H217.544V239.091H226.092V226.985Z" fill="#FFB6B6"/>
<path d="M209.221 246.421C208.323 246.421 207.523 246.401 206.919 246.344C204.65 246.136 202.482 244.461 201.393 243.484C200.903 243.044 200.748 242.343 201.001 241.74C201.184 241.308 201.548 240.982 202.001 240.855L208.001 239.144L217.716 232.6L217.826 232.796C217.867 232.869 218.822 234.585 219.14 235.742C219.263 236.182 219.23 236.549 219.046 236.834C218.92 237.029 218.74 237.143 218.597 237.209C218.773 237.392 219.324 237.767 221.022 238.036C223.5 238.427 224.022 235.864 224.043 235.758L224.059 235.673L224.132 235.624C225.312 234.866 226.039 234.519 226.288 234.593C226.443 234.638 226.704 234.719 227.41 241.699C227.479 241.919 227.973 243.524 227.639 245.06C227.275 246.731 219.961 246.157 218.495 246.026C218.455 246.03 212.977 246.421 209.226 246.421H209.221Z" fill="#2F2E41"/>
<path d="M250.428 217.476L243.176 221.991L249.593 232.263L256.845 227.748L250.428 217.476Z" fill="#FFB6B6"/>
<path d="M240.798 244.763C239.794 244.763 238.872 244.641 238.215 244.527C237.57 244.413 237.064 243.899 236.957 243.255C236.884 242.791 237.019 242.322 237.337 241.976L241.521 237.355L246.297 226.672L246.493 226.778C246.566 226.818 248.284 227.768 249.17 228.583C249.509 228.892 249.676 229.222 249.668 229.561C249.664 229.797 249.574 229.984 249.485 230.119C249.729 230.184 250.395 230.208 251.979 229.54C254.289 228.566 253.375 226.113 253.334 226.012L253.301 225.93L253.338 225.853C253.938 224.585 254.366 223.909 254.619 223.84C254.779 223.795 255.04 223.726 259.338 229.279C259.514 229.426 260.783 230.53 261.314 232.009C261.889 233.619 255.379 236.997 254.068 237.657C254.028 237.689 247.215 242.632 244.415 244.038C243.305 244.596 241.99 244.767 240.794 244.767L240.798 244.763Z" fill="#2F2E41"/>
<path d="M232.386 125.751H208.454L206.283 147.974L215.785 230.086H228.002L223.116 182.662L242.933 225.478L253.791 217.891L238.317 177.919C238.317 177.919 243.843 143.097 239.5 134.422C235.157 125.751 232.386 125.751 232.386 125.751Z" fill="#2F2E41"/>
<path d="M244.288 127.108H202.756L217.687 78.0577H234.247L244.288 127.108Z" fill="#5B84FF"/>
<path d="M220.3 78.0659C220.3 78.0659 209.985 77.7929 208.899 80.5066C207.813 83.2162 195.054 147.714 195.054 147.714H203.47L220.304 78.0659H220.3Z" fill="#5B84FF"/>
<path d="M227.01 78.1228C227.01 78.1228 236.096 76.9738 237.182 79.6834C238.268 82.3931 251.027 146.89 251.027 146.89H242.611L227.01 78.1228Z" fill="#5B84FF"/>
<path d="M221.528 73.6938C226.551 73.6938 230.622 69.6293 230.622 64.6155C230.622 59.6017 226.551 55.5372 221.528 55.5372C216.506 55.5372 212.434 59.6017 212.434 64.6155C212.434 69.6293 216.506 73.6938 221.528 73.6938Z" fill="#FFB6B6"/>
<path d="M219.038 53.6669C219.038 53.6669 214.034 73.9545 219.597 83.4362L211.76 81.7737C211.76 81.7737 208.724 59.5711 214.83 55.5331L219.038 53.6628V53.6669Z" fill="#2F2E41"/>
<path d="M277 245.937C277 246.275 276.727 246.548 276.388 246.548H0.612272C0.273481 246.548 0 246.275 0 245.937C0 245.598 0.273481 245.325 0.612272 245.325H276.388C276.727 245.325 277 245.598 277 245.937Z" fill="#2E2E41"/>
<path d="M46.9817 71.196L57.4352 74.6268V59.6036H47.9491L46.9817 71.196Z" fill="#A0616A"/>
<path d="M56.1413 63.7598C61.8943 63.7598 66.5581 59.1043 66.5581 53.3613C66.5581 47.6184 61.8943 42.9629 56.1413 42.9629C50.3882 42.9629 45.7245 47.6184 45.7245 53.3613C45.7245 59.1043 50.3882 63.7598 56.1413 63.7598Z" fill="#A0616A"/>
<path d="M53.4881 54.1763L54.9249 55.9161L57.5209 51.377C57.5209 51.377 60.8354 51.5481 60.8354 49.0911C60.8354 46.6341 63.8763 46.5649 63.8763 46.5649C63.8763 46.5649 68.1826 39.0594 59.2639 41.0356C59.2639 41.0356 53.0758 36.8061 50.0022 40.4203C50.0022 40.4203 40.5692 45.1632 43.2672 53.4184L47.7531 61.9303L48.7695 60.003C48.7695 60.003 48.1532 51.9149 53.4881 54.1681V54.1763Z" fill="#2F2E41"/>
<path d="M43.8428 239.222H52.3901V227.116H43.8428V239.222Z" fill="#A0616A"/>
<path d="M51.4472 246.157C49.9859 246.287 42.6713 246.866 42.3039 245.191C41.9692 243.655 42.4631 242.049 42.5325 241.829C43.2346 234.845 43.4958 234.768 43.655 234.723C43.904 234.65 44.6305 234.996 45.8102 235.754L45.8837 235.803L45.9 235.889C45.9204 235.999 46.4429 238.562 48.9205 238.166C50.6186 237.897 51.1696 237.522 51.3451 237.339C51.2023 237.274 51.0227 237.16 50.8961 236.964C50.7124 236.679 50.6798 236.312 50.8022 235.872C51.1206 234.711 52.0758 232.996 52.1166 232.926L52.2268 232.731L61.9415 239.275L67.9418 240.986C68.3949 241.116 68.7581 241.438 68.9418 241.87C69.1949 242.473 69.0398 243.174 68.55 243.614C67.4601 244.592 65.2968 246.267 63.0232 246.474C62.4191 246.532 61.619 246.552 60.721 246.552C56.9699 246.552 51.4921 246.165 51.4513 246.157H51.4472Z" fill="#2F2E41"/>
<path d="M63.3089 122.748L40.8875 121.603C40.8875 121.603 37.4506 134.609 41.7937 148.162L42.3162 229.772H54.9861L66.9295 145.587L63.3089 122.748Z" fill="#2F2E41"/>
<path d="M59.5251 68.3112L47.2184 61.7917C47.2184 61.7917 33.9566 81.1381 35.7893 91.618C37.6261 102.098 40.8834 121.607 40.8834 121.607L68.0316 122.752L63.2926 84.3326L59.5251 68.3112Z" fill="#E6E6E6"/>
<path d="M49.9247 239.222H58.472V227.116H49.9247V239.222Z" fill="#A0616A"/>
<path d="M57.5291 246.157C56.0678 246.287 48.7532 246.866 48.3858 245.191C48.0511 243.655 48.545 242.049 48.6144 241.829C49.3165 234.845 49.5777 234.768 49.7369 234.723C49.9859 234.65 50.7125 234.996 51.8921 235.754L51.9656 235.803L51.9819 235.889C52.0023 235.999 52.5248 238.562 55.0024 238.166C56.7005 237.897 57.2515 237.522 57.427 237.339C57.2842 237.274 57.1046 237.16 56.978 236.964C56.7944 236.679 56.7617 236.312 56.8842 235.872C57.2025 234.711 58.1577 232.996 58.1985 232.926L58.3087 232.731L68.0234 239.275L74.0237 240.986C74.4768 241.116 74.84 241.438 75.0237 241.87C75.2768 242.473 75.1217 243.174 74.6319 243.614C73.542 244.592 71.3787 246.267 69.1051 246.474C68.501 246.532 67.701 246.552 66.803 246.552C63.0518 246.552 57.574 246.165 57.5332 246.157H57.5291Z" fill="#2F2E41"/>
<path d="M68.0316 122.748L40.8834 121.603C40.8834 121.603 37.4466 134.609 41.7896 148.162L47.0388 229.772H59.7088L71.6522 145.587L68.0316 122.748Z" fill="#2F2E41"/>
<path d="M78.4606 144.059C79.4607 146.935 78.7219 149.783 76.8157 150.423C74.9094 151.059 72.5542 149.246 71.5542 146.365C71.1379 145.22 71.0154 143.993 71.195 142.787L67.1254 130.543L73.1502 128.746L76.5258 141.007C77.4198 141.858 78.0851 142.905 78.4647 144.059H78.4606Z" fill="#A0616A"/>
<path d="M44.304 72.9155C44.304 72.9155 53.1534 70.5685 54.5943 73.111C56.0311 75.6536 77.2769 137.881 77.2769 137.881L63.7906 139.633L44.3081 72.9155H44.304Z" fill="#E6E6E6"/>
</g>
<defs>
<clipPath id="clip0_37_1811">
<rect width="277" height="247" fill="white"/>
</clipPath>
</defs>
</svg>
